Coordinates
version=1
nRows=7
nColumns=33
inDegrees=yes

Units are S.I. units (second, meters, Newtons, ...)
Angles are in degrees.

endheader
time	ground_thorax_rot_x	ground_thorax_rot_y	ground_thorax_rot_z	ground_thorax_tx	ground_thorax_ty	ground_thorax_tz	clav_prot_r	clav_elev_r	scapula_abduction_r	scapula_elevation_r	scapula_upward_rot_r	scapula_winging_r	shoulder_elv_r	plane_of_elev_r	axial_rot_r	elbow_flexion_r	pro_sup_r	wrist_flex_r	wrist_dev_r	clav_prot_l	clav_elev_l	scapula_abduction_l	scapula_elevation_l	scapula_upward_rot_l	scapula_winging_l	shoulder_elv_l	plane_of_elev_l	axial_rot_l	elbow_flexion_l	pro_sup_l	wrist_flex_l	wrist_dev_l
      1.16000000	      4.62274755	     -8.36983623	      9.18355476	     -0.11481967	      1.04200889	      0.01132331	      8.91559334	     -7.90308566	     19.27695458	     -3.97921323	      7.35689914	     -5.50585343	     43.22058900	     27.62499981	     -0.11254296	     57.09139563	     45.71735720	      5.48353429	     17.56152050	      6.15380881	    -13.74383065	     -8.08761232	      3.03693814	    -10.78717616	     -2.48163128	     46.48880521	     24.17576644	      1.15020608	     70.68644380	     17.98973989	     -4.64421195	     -4.60159438
      1.17000000	      4.37719941	     -8.00051603	      9.11724102	     -0.11465609	      1.04276195	      0.01097724	      8.53841269	     -7.77751029	     18.93875722	     -4.08163994	      7.90954655	     -5.43646899	     43.83682638	     27.61120129	     -3.13560743	     58.12400254	     43.44205716	     10.56731371	     21.25377431	      6.70713728	    -13.51679976	     -9.26484499	      3.11058273	    -10.09387199	     -1.91621123	     46.50038983	     25.14985688	      1.62527595	     71.28822992	     17.80137923	     -5.14636494	     -4.74378602
      1.18000000	      4.44450292	     -8.04802365	      8.86648922	     -0.11441082	      1.04331282	      0.01106643	      8.29367051	     -7.80710038	     18.97176643	     -4.40207520	      8.68373140	     -5.45732411	     44.33120397	     28.27550135	     -3.54588402	     58.98011232	     43.42645519	     10.49592065	     21.17366384	      6.69410245	    -13.51824982	     -9.45037082	      3.37868806	     -9.49695079	     -1.82705819	     46.69038078	     26.18033629	      2.20145080	     71.90413001	     17.71456066	     -5.31808783	     -4.80820266
      1.19000000	      4.08007381	     -7.54688526	      8.82418241	     -0.11462466	      1.04310042	      0.01070057	      7.97407525	     -7.41561175	     18.68006925	     -4.23890466	      9.16571282	     -5.51320932	     44.60521211	     28.73245513	     -4.76155955	     60.37559640	     43.79806948	      9.59231239	     20.72170343	      7.68173675	    -12.65713579	    -11.34025247	      2.80572851	     -8.88082575	     -0.70689135	     46.67324860	     27.81973294	      2.96223362	     72.38349754	     17.62408536	     -5.77097061	     -4.86880594
      1.20000000	      4.17317990	     -7.68060952	      8.93629391	     -0.11440188	      1.04389758	      0.01072155	      7.72910633	     -7.45721749	     18.58509627	     -4.47832797	      9.70458033	     -5.47400908	     44.90535951	     29.22886132	     -5.07486699	     61.35976952	     43.73155819	      9.67626895	     20.49034951	      7.59627145	    -12.69775670	    -11.34590953	      3.03313744	     -8.45941264	     -0.70954594	     46.76601005	     28.53621251	      3.52195555	     73.18444351	     17.55402389	     -5.92964813	     -4.96604922
      1.21000000	      4.22222683	     -7.67156252	      8.84403151	     -0.11413916	      1.04427316	      0.01065470	      7.45542729	     -7.23319022	     18.50720593	     -4.53257650	     10.38220943	     -5.55273379	     45.26424065	     29.82602130	     -5.48954230	     62.45702892	     43.75279849	      9.62929528	     19.98813112	      7.64244455	    -12.57208298	    -11.64286761	      3.17607662	     -7.86362008	     -0.51702097	     46.98426432	     29.50867423	      3.89963363	     73.81152555	     17.55404696	     -6.07744931	     -5.05376796
      1.22000000	      4.32507089	     -7.78135506	      9.16692066	     -0.11379698	      1.04479527	      0.01054670	      7.27584520	     -7.02370903	     18.44637699	     -4.50820058	     10.81752803	     -5.62606047	     45.37187315	     30.33792014	     -5.91710556	     63.55751501	     43.79517386	      9.59512874	     19.47924289	      7.65496257	    -12.38674555	    -11.77758638	      3.13648263	     -7.55856063	     -0.37703597	     46.97994955	     30.33086326	      4.39792812	     74.64141455	     17.55611649	     -6.25230338	     -5.15451182
